<svg xmlns="http://www.w3.org/2000/svg" width="140" height="150.342" viewBox="0 0 140 150.342">
  <g id="Group_448" data-name="Group 448" transform="translate(-118 -352)">
    <g id="logo">
      <path id="logo-2" data-name="logo" d="M1488.955,169.224a53.853,53.853,0,0,0,93.552,36.382l14.574,11.175c.031-.49.064-.773.064-1.057,0-15.989.088-31.979-.037-47.967a51.244,51.244,0,0,0-14.812-35.142,53.851,53.851,0,0,0-93.341,36.61Zm57.85-43.283a41.941,41.941,0,0,1,16.292,3.238,36.39,36.39,0,0,1,13.208,9.321l1.907,2.135-11.323,11.121a31.629,31.629,0,0,0-3.178-6.469,33.229,33.229,0,0,0-2.795-3.718,31.843,31.843,0,0,0-3.317-3.293,32.982,32.982,0,0,0-33.616-5.658A40.281,40.281,0,0,1,1546.805,125.941Zm-36.182,62.676a42.9,42.9,0,0,1,.031-41.807,32.91,32.91,0,0,1,13.24-10.011,31.882,31.882,0,0,1,8.031-2.109,31.116,31.116,0,0,1,3.838-.246l.306,0a30.542,30.542,0,0,1,4.13.3,31.335,31.335,0,0,1,15.107,6.456,32.087,32.087,0,0,1,5.677,5.784,23.611,23.611,0,0,0-4.362-2.443,24.4,24.4,0,0,0-9.722-1.994,25.342,25.342,0,0,0-25.22,25.293,23.525,23.525,0,0,0,7.38,17.569,24.317,24.317,0,0,0,17.84,7.277,23.948,23.948,0,0,0,14.094-4.39,32.857,32.857,0,0,1-12.907,9.5,32,32,0,0,1-3.888,1.312,31.478,31.478,0,0,1-4.019.811,32.306,32.306,0,0,1-4.413.3h0a32.464,32.464,0,0,1-11.734-2.18A34.251,34.251,0,0,1,1510.623,188.617Zm65.73,8.156a40.174,40.174,0,0,1-29.548,12.376,41.9,41.9,0,0,1-25.041-8.1q.392.182.787.353a33.917,33.917,0,0,0,34.893-4.774,32.865,32.865,0,0,0,9.7-13.026l11.336,11.024Z" transform="translate(-1355.955 236.623)" fill="#fff"/>
    </g>
    <text id="ChatOnce" transform="translate(188 494.342)" fill="#fff" font-size="32" font-family="SegoeUI, Segoe UI"><tspan x="-69.398" y="0">ChatOnce</tspan></text>
  </g>
</svg>
