<svg xmlns="http://www.w3.org/2000/svg" xmlns:xlink="http://www.w3.org/1999/xlink" width="375" height="812" viewBox="0 0 375 812">
  <defs>
    <clipPath id="clip-path">
      <rect width="339.328" height="18" fill="none"/>
    </clipPath>
    <clipPath id="clip-path-2">
      <rect width="54" height="18" fill="none"/>
    </clipPath>
    <clipPath id="clip-path-3">
      <rect width="134" height="5" fill="none"/>
    </clipPath>
    <filter id="Rectangle_6" x="6" y="248" width="300" height="430" filterUnits="userSpaceOnUse">
      <feOffset dy="3" input="SourceAlpha"/>
      <feGaussianBlur stdDeviation="5" result="blur"/>
      <feFlood flood-opacity="0.102"/>
      <feComposite operator="in" in2="blur"/>
      <feComposite in="SourceGraphic"/>
    </filter>
    <filter id="Rectangle_9" x="41" y="531" width="230" height="76" filterUnits="userSpaceOnUse">
      <feOffset dy="8" input="SourceAlpha"/>
      <feGaussianBlur stdDeviation="5" result="blur-2"/>
      <feFlood flood-color="#f1ffe0"/>
      <feComposite operator="in" in2="blur-2"/>
      <feComposite in="SourceGraphic"/>
    </filter>
    <filter id="Rectangle_6-2" x="301" y="262" width="282" height="402" filterUnits="userSpaceOnUse">
      <feOffset dy="3" input="SourceAlpha"/>
      <feGaussianBlur stdDeviation="5" result="blur-3"/>
      <feFlood flood-opacity="0.102"/>
      <feComposite operator="in" in2="blur-3"/>
      <feComposite in="SourceGraphic"/>
    </filter>
    <clipPath id="clip-_14_Subscription">
      <rect width="375" height="812"/>
    </clipPath>
  </defs>
  <g id="_14_Subscription" data-name="14 Subscription" clip-path="url(#clip-_14_Subscription)">
    <rect width="375" height="812" fill="#fff"/>
    <g id="UI_Bars_Top_Bars_Light_Top_Bar" data-name="UI Bars / Top Bars / Light / Top Bar">
      <rect id="Rectangle" width="375" height="88" fill="#fff"/>
      <g id="Right" transform="translate(205 44)">
        <rect id="Bounds" width="170" height="44" fill="none"/>
        <path id="Union_1" data-name="Union 1" d="M-640.112-28.25a1,1,0,0,1-1-1v-.25a1,1,0,0,1,1-1h11.5a1,1,0,0,1,1,1v.25a1,1,0,0,1-1,1ZM-649-35a1,1,0,0,1-1-1v-.25a1,1,0,0,1,1-1h20.5a1,1,0,0,1,1,1V-36a1,1,0,0,1-1,1Zm8.888-6.75a1,1,0,0,1-1-1V-43a1,1,0,0,1,1-1h11.5a1,1,0,0,1,1,1v.25a1,1,0,0,1-1,1Z" transform="translate(780.975 58.625)"/>
      </g>
      <text id="Title" transform="translate(187.5 78)" font-size="17" font-family="SegoeUI, Segoe UI" letter-spacing="-0.024em"><tspan x="-44.341" y="0">Subscription</tspan></text>
    </g>
    <g id="Bars_Status_Bar_-_iPhone_X_On_Light" data-name="Bars/Status Bar - iPhone X/On Light" transform="translate(21 14.33)" clip-path="url(#clip-path)">
      <g id="Battery" transform="translate(315 2.67)">
        <g id="Border" transform="translate(0 0.333)" fill="none" stroke="#000" stroke-miterlimit="10" stroke-width="1" opacity="0.35">
          <rect width="22" height="11.333" rx="2.667" stroke="none"/>
          <rect x="0.5" y="0.5" width="21" height="10.333" rx="2.167" fill="none"/>
        </g>
        <path id="Cap" d="M0,0V4A2.17,2.17,0,0,0,1.328,2,2.17,2.17,0,0,0,0,0" transform="translate(23 4)" opacity="0.4"/>
        <rect id="Capacity" width="18" height="7.333" rx="1.333" transform="translate(2 2.333)"/>
      </g>
      <path id="Wifi" d="M7.637,10.966a.313.313,0,0,1-.221-.093l-2-2.016a.313.313,0,0,1,.01-.456,3.421,3.421,0,0,1,4.419,0,.311.311,0,0,1,.1.226.315.315,0,0,1-.094.23l-2,2.016A.308.308,0,0,1,7.637,10.966Zm3.508-3.538a.312.312,0,0,1-.214-.085,4.9,4.9,0,0,0-6.585,0,.312.312,0,0,1-.214.085.308.308,0,0,1-.22-.091L2.758,6.17a.322.322,0,0,1,0-.459,7.158,7.158,0,0,1,9.752,0,.322.322,0,0,1,.1.229.326.326,0,0,1-.094.23L11.364,7.337A.309.309,0,0,1,11.145,7.428ZM13.8,4.743a.3.3,0,0,1-.214-.087,8.64,8.64,0,0,0-11.907,0,.3.3,0,0,1-.214.087.308.308,0,0,1-.22-.091L.094,3.486a.322.322,0,0,1,0-.456,10.9,10.9,0,0,1,15.08,0,.325.325,0,0,1,.1.228.319.319,0,0,1-.094.229L14.023,4.652A.307.307,0,0,1,13.8,4.743Z" transform="translate(294.694 3.001)"/>
      <path id="Cellular_Connection" data-name="Cellular Connection" d="M16,10.667H15a1,1,0,0,1-1-1V1a1,1,0,0,1,1-1h1a1,1,0,0,1,1,1V9.667A1,1,0,0,1,16,10.667Zm-4.667,0h-1a1,1,0,0,1-1-1V3.334a1,1,0,0,1,1-1h1a1,1,0,0,1,1,1V9.667A1,1,0,0,1,11.334,10.667Zm-4.667,0h-1a1,1,0,0,1-1-1v-4a1,1,0,0,1,1-1h1a1,1,0,0,1,1,1v4A1,1,0,0,1,6.666,10.667ZM2,10.667H1a1,1,0,0,1-1-1v-2a1,1,0,0,1,1-1H2a1,1,0,0,1,1,1v2A1,1,0,0,1,2,10.667Z" transform="translate(272.667 3.337)"/>
      <g id="Time_Style" data-name="Time Style" clip-path="url(#clip-path-2)">
        <text id="_Time" data-name="↳ Time" font-size="15" font-family="SegoeUI-Semibold, Segoe UI" font-weight="600" letter-spacing="-0.02em"><tspan x="14.116" y="16">9:41</tspan></text>
      </g>
    </g>
    <g id="Bars_Home_Indicator_On_Dark" data-name="Bars/Home Indicator/On Dark" transform="translate(121 798)" clip-path="url(#clip-path-3)">
      <rect id="Home_Indicator" data-name="Home Indicator" width="134" height="5" rx="2.5"/>
    </g>
    <g id="Group" transform="translate(19 105)">
      <g id="Rectangle-2" data-name="Rectangle" fill="#fafafa" stroke="#e5e5e5" stroke-miterlimit="10" stroke-width="1">
        <rect width="337" height="115" rx="5" stroke="none"/>
        <rect x="-0.5" y="-0.5" width="338" height="116" rx="5.5" fill="none"/>
      </g>
      <text id="مساحة_إعلانية" data-name="مساحة إعلانية" transform="translate(169 64)" fill="#dadada" font-size="17" font-family="SegoeUI-Bold, Segoe UI" font-weight="700"><tspan x="-44.766" y="0">Adds space</tspan><tspan font-family="SSTArabic-Bold, SST Arabic"><tspan x="0" y="22"></tspan></tspan></text>
    </g>
    <g id="Group_428" data-name="Group 428">
      <g transform="matrix(1, 0, 0, 1, 0, 0)" filter="url(#Rectangle_6)">
        <g id="Rectangle_6-3" data-name="Rectangle 6" transform="translate(21 260)" fill="#fff" stroke="#efefef" stroke-miterlimit="10" stroke-width="1">
          <rect width="270" height="400" rx="10" stroke="none"/>
          <rect x="0.5" y="0.5" width="269" height="399" rx="9.5" fill="none"/>
        </g>
      </g>
      <text id="_1_Month_Plane" data-name="1 Month Plane" transform="translate(156 305)" font-size="17" font-family="SegoeUI-Bold, Segoe UI" font-weight="700"><tspan x="-58.429" y="0">1 Month Plane</tspan></text>
      <text id="Subscribe_to_your_monthly_plan_so_you_can_cancel_the_ads_for_1_month" data-name="Subscribe to your monthly plan so you can cancel the ads for 1 month" transform="translate(55 330)" fill="#7e7e7e" font-size="13" font-family="SegoeUI, Segoe UI"><tspan x="2.792" y="14">Subscribe to your monthly plan so </tspan><tspan x="0.206" y="38">you can cancel the ads for 1 month</tspan></text>
      <g id="Group_427" data-name="Group 427" transform="translate(0 6)">
        <text id="_3" data-name="3" transform="translate(161 464)" fill="#8bc34a" font-size="80" font-family="SegoeUI, Segoe UI"><tspan x="-21.563" y="0">3</tspan></text>
        <text id="_" data-name="$" transform="translate(127 416)" fill="#7e7e7e" font-size="20" font-family="SegoeUI, Segoe UI"><tspan x="-5.391" y="0">$</tspan></text>
      </g>
      <g id="Group_232" data-name="Group 232" transform="translate(-58 244)">
        <g transform="matrix(1, 0, 0, 1, 58, -244)" filter="url(#Rectangle_9)">
          <rect id="Rectangle_9-2" data-name="Rectangle 9" width="200" height="46" rx="23" transform="translate(56 538)" fill="#8bc34a"/>
        </g>
        <text id="Subscription" transform="translate(214 325)" fill="#fff" font-size="15" font-family="SegoeUI, Segoe UI"><tspan x="-41.115" y="0">Subscription</tspan></text>
      </g>
    </g>
    <g id="Group_429" data-name="Group 429" transform="translate(286)">
      <g transform="matrix(1, 0, 0, 1, -286, 0)" filter="url(#Rectangle_6-2)">
        <g id="Rectangle_6-4" data-name="Rectangle 6" transform="translate(316 274)" fill="#fff" stroke="#efefef" stroke-miterlimit="10" stroke-width="1">
          <rect width="252" height="372" rx="10" stroke="none"/>
          <rect x="0.5" y="0.5" width="251" height="371" rx="9.5" fill="none"/>
        </g>
      </g>
      <text id="الاشتراك_شهريا" data-name="الاشتراك شهريا" transform="translate(156 305)" font-size="17" font-family="SegoeUI-Bold, Segoe UI" font-weight="700"><tspan x="-52.025" y="0">الاشتراك شهريا</tspan></text>
      <text id="Subscribe_to_your_monthly_plan_so_you_can_cancel_the_ads_for_1_month-2" data-name="Subscribe to your monthly plan so you can cancel the ads for 1 month" transform="translate(55 330)" fill="#7e7e7e" font-size="13" font-family="SegoeUI, Segoe UI"><tspan x="2.792" y="14">Subscribe to your monthly plan so </tspan><tspan x="0.206" y="38">you can cancel the ads for 1 month</tspan></text>
      <g id="Group_427-2" data-name="Group 427" transform="translate(0 6)">
        <text id="_3-2" data-name="3" transform="translate(161 464)" fill="#8bc34a" font-size="80" font-family="SegoeUI, Segoe UI"><tspan x="-21.563" y="0">3</tspan></text>
        <text id="_2" data-name="$" transform="translate(127 416)" fill="#7e7e7e" font-size="20" font-family="SegoeUI, Segoe UI"><tspan x="-5.391" y="0">$</tspan></text>
        <text id="شهريا" transform="translate(159 494)" fill="#7e7e7e" font-size="20" font-family="SegoeUI, Segoe UI"><tspan x="-24.214" y="0">شهريا</tspan></text>
      </g>
      <g id="Group_232-2" data-name="Group 232" transform="translate(-58 244)">
        <rect id="Rectangle_9-3" data-name="Rectangle 9" width="200" height="46" rx="23" transform="translate(114 294)" fill="#dbdbdb"/>
        <text id="اشتراك" transform="translate(214 325)" fill="#fff" font-size="15" font-family="SegoeUI, Segoe UI"><tspan x="-21.292" y="0">اشتراك</tspan></text>
      </g>
    </g>
    <g id="Group_430" data-name="Group 430" transform="translate(29)">
      <circle id="Ellipse_13" data-name="Ellipse 13" cx="7" cy="7" r="7" transform="translate(121 706)" fill="#8bc34a"/>
      <circle id="Ellipse_14" data-name="Ellipse 14" cx="6" cy="6" r="6" transform="translate(143 707)" fill="#e3e3e3"/>
      <circle id="Ellipse_15" data-name="Ellipse 15" cx="6" cy="6" r="6" transform="translate(164 707)" fill="#e3e3e3"/>
      <circle id="Ellipse_16" data-name="Ellipse 16" cx="6" cy="6" r="6" transform="translate(184 707)" fill="#e3e3e3"/>
    </g>
  </g>
</svg>
